<?xml version="1.0" encoding="utf-8"?>
<!-- Generator: Adobe Illustrator 23.1.0, SVG Export Plug-In . SVG Version: 6.00 Build 0)  -->
<svg version="1.1" xmlns="http://www.w3.org/2000/svg" xmlns:xlink="http://www.w3.org/1999/xlink" x="0px" y="0px"
	 viewBox="0 0 184.69 249.88" style="enable-background:new 0 0 184.69 249.88;" xml:space="preserve">
<style type="text/css">
	.st0{display:none;}
	.st1{display:inline;fill:#FFF200;}
	.st2{display:inline;}
	.st3{fill:#FFFFFF;}
	.st4{fill:none;}
	.st5{display:inline;fill:#FFFFFF;}
	.st6{display:none;fill:#FFFFFF;}
	.st7{fill:none;stroke:#000000;stroke-miterlimit:10;}
	.st8{fill:#FAD1E3;}
	.st9{fill:#F9EF5F;stroke:#000000;stroke-miterlimit:10;}
	.st10{fill:#F4D05B;stroke:#000000;stroke-miterlimit:10;}
	.st11{fill:#F9EF5F;}
	.st12{display:inline;fill:#F9EF5F;}
	.st13{display:inline;fill:none;stroke:#000000;stroke-miterlimit:10;}
</style>
<g id="Layer_2" class="st0">
	<rect x="-14.18" y="-9.86" class="st1" width="217.72" height="270.89"/>
</g>
<g id="base" class="st0">
	<g class="st2">
		<path class="st3" d="M144.63,142.78c-7.42-16.82-18.55-28.08-18.55-28.08H80.45H34.81c0,0-11.12,11.25-18.55,28.08
			c-6.18,13.99-10.56,45.2-9.38,60.45c0.67,8.7,6.53,18,6.53,18h67.03h67.03c0,0,5.85-9.3,6.53-18
			C155.19,187.99,150.81,156.77,144.63,142.78z"/>
		<path class="st3" d="M142.69,0.51c-7.19-0.47-23.98,25.5-34.64,29.41c-6.6,2.42-21.08,0-28.1,0s-21.51,2.42-28.1,0
			C41.17,26,24.39,0.04,17.2,0.51C5.92,1.24,20,34.31,20.46,45.6c0.66,15.96-10.33,43.18,7.84,63.4
			c16.91,18.81,38.19,16.91,51.63,16.91s34.73,1.91,51.63-16.91c18.17-20.22,7.19-47.44,7.84-63.4
			C139.88,34.31,153.97,1.24,142.69,0.51z"/>
		<path class="st3" d="M158.81,195.73c-1.91-6.08-6.93-16.35-12.9-18.6c-5.05-1.91-20.62-2.91-25.5-0.6c-2.83,1.34-9,8.7-9,8.7
			l-30.96,0.3l-30.96-0.3c0,0-6.17-7.36-9-8.7c-4.88-2.31-20.45-1.31-25.5,0.6c-5.97,2.25-10.99,12.52-12.9,18.6
			c-3.14,10.01-1.68,28.2,4.61,36.6c1.16,1.56,6.72,9,6.72,9h28.27c0,0,3.99-2.87,5.74-4.95c1.56-1.86,3.86-6.15,3.86-6.15h29.16
			h29.16c0,0,2.3,4.29,3.86,6.15c1.74,2.08,5.74,4.95,5.74,4.95h28.27c0,0,5.56-7.44,6.72-9
			C160.48,223.94,161.95,205.74,158.81,195.73z"/>
		<path class="st3" d="M132.03,116.53c-0.6-2.85-2.53-4.86-2.53-4.86s-10.89,6.51-19.74,9.06c-13.24,3.82-21.92,3.68-29.31,3.68
			c-7.38,0-16.06,0.14-29.31-3.68c-8.85-2.55-19.74-9.06-19.74-9.06s-1.93,2.01-2.53,4.86c-0.62,2.95-0.37,5.68-0.37,5.68
			s11.58,7.3,22.19,9.77c9.97,2.33,22.29,2.7,29.76,2.7c7.47,0,19.78-0.38,29.76-2.7c10.61-2.47,22.19-9.77,22.19-9.77
			S132.65,119.48,132.03,116.53z"/>
		<path class="st3" d="M142.71,149.36c10.82,2.87,17.6-2.07,19.31-6.48c5.55-14.29,7.06-37.48,12.1-52.48
			c0.84-2.51,5.44-4.67,7.08-6.21c3.99-3.74,3.61-7.21,1.18-9.05c-4.4-3.32-5.37-0.73-7.19-1.49c-0.53-0.22,2.52-0.58,3.14-2.72
			c0.46-1.59,1.33-3.36-1.39-5.76c-1.41-1.25-5.9-1.69-7.05-1.03c-1.92,1.09-1.56,3.11-2.47,3.8c-0.01,0.01-0.03,0-0.03-0.01
			c-0.48-1.02,1.05-2.55,0.06-4.53c-0.6-1.19-4.57-3.31-6.44-3.06c-3.6,0.49-3.85,2.44-4.35,4.02c-0.67,2.12,1.67,4.11,1.1,4
			c-1.94-0.38-1.3-3.07-6.81-2.75c-3.05,0.17-5.29,2.85-4.05,8.18c0.51,2.19,3.13,6.54,2.43,9.1c-4.15,15.28-15.77,35.39-19.1,50.36
			c-1.03,4.62,1.85,12.55,12.46,16.12C142.68,149.35,142.7,149.36,142.71,149.36z"/>
		<path class="st3" d="M117.41,186.88c-1.65-9.6-9.22-19.2-14.4-23.85c-8.77-7.88-16.67-8.55-22.56-8.55
			c-5.89,0-13.78,0.68-22.56,8.55c-5.18,4.65-12.75,14.25-14.4,23.85c-1.18,6.87-1.45,21.08,0,27.9c1.15,5.42,4.8,15.75,9,20.25
			c5.59,5.99,20.79,6.3,27.96,6.3s22.37-0.31,27.96-6.3c4.2-4.5,7.85-14.83,9-20.25C118.85,207.96,118.59,193.76,117.41,186.88z"/>
		<g>
			<g>
				<path class="st3" d="M28.52,223.33c-6.41,0-8.39,10.07-8.29,14.11c0.09,3.52,2.19,11.93,7.88,11.93c6.2,0,8.38-8.41,8.55-11.93
					C36.85,233.51,34.62,223.33,28.52,223.33z"/>
				<path class="st3" d="M12,225.58c-6.41,0-8.32,7.82-8.22,11.86c0.09,3.52,2.19,11.93,7.88,11.93c6.2,0,8.38-8.41,8.55-11.93
					C20.4,233.51,18.11,225.58,12,225.58z"/>
			</g>
			<g>
				<path class="st3" d="M132.52,223.33c-6.41,0-8.39,10.07-8.29,14.11c0.09,3.52,2.19,11.93,7.88,11.93c6.2,0,8.38-8.41,8.55-11.93
					C140.85,233.51,138.63,223.33,132.52,223.33z"/>
			</g>
			<path class="st3" d="M44.89,225.58c-6.41,0-8.32,7.82-8.22,11.86c0.09,3.52,2.19,11.93,7.88,11.93c6.2,0,8.38-8.41,8.55-11.93
				C53.29,233.51,50.99,225.58,44.89,225.58z"/>
			<g>
				<path class="st3" d="M116.01,225.58c-6.41,0-8.32,7.82-8.22,11.86c0.09,3.52,2.19,11.93,7.88,11.93c6.2,0,8.38-8.41,8.55-11.93
					C124.41,233.51,122.11,225.58,116.01,225.58z"/>
			</g>
			<path class="st3" d="M148.89,225.58c-6.41,0-8.32,7.82-8.22,11.86c0.09,3.52,2.19,11.93,7.88,11.93c6.2,0,8.38-8.41,8.55-11.93
				C157.29,233.51,154.99,225.58,148.89,225.58z"/>
		</g>
		<line class="st4" x1="80.45" y1="128.44" x2="80.45" y2="140.7"/>
		<circle class="st3" cx="80.45" cy="142.86" r="5.93"/>
		<path class="st3" d="M112.73,188.28c-1.44-8.39-8.05-16.77-12.58-20.83c-7.66-6.88-14.56-7.47-19.7-7.47
			c-5.14,0-12.04,0.59-19.7,7.47c-4.53,4.06-11.14,12.45-12.58,20.83c-1.03,6-1.26,18.41,0,24.37c1,4.73,4.19,13.76,7.86,17.69
			c4.88,5.23,18.16,5.5,24.42,5.5c6.26,0,19.54-0.27,24.42-5.5c3.67-3.93,6.86-12.95,7.86-17.69
			C114,206.69,113.76,194.28,112.73,188.28z"/>
		<path class="st3" d="M10.29,125.77c-8.09,7.74-7.4,16.1-4.53,19.86c9.31,12.18,28.31,25.55,38.49,37.67
			c1.7,2.03,1.16,7.08,1.61,9.28c1.12,5.36,4.27,6.84,7.11,5.72c5.13-2.03,3.42-4.2,5.02-5.36c0.47-0.34-0.82,2.45,0.68,4.09
			c1.12,1.22,2.17,2.89,5.64,1.82c1.8-0.56,4.51-4.16,4.56-5.48c0.07-2.21-1.84-2.96-1.96-4.08c0-0.01,0.02-0.02,0.03-0.02
			c1.13,0.12,1.63,2.23,3.83,2.41c1.32,0.11,5.21-2.17,5.97-3.9c1.46-3.32-0.08-4.56-1.16-5.81c-1.46-1.68-4.38-0.72-3.99-1.15
			c1.33-1.46,3.3,0.49,5.9-4.37c1.44-2.69,0.32-5.99-4.87-7.72c-2.13-0.71-7.21-0.74-9.03-2.66c-10.88-11.5-21.99-31.9-33.03-42.54
			c-3.41-3.29-11.68-4.96-20.25,2.23C10.31,125.75,10.3,125.77,10.29,125.77z"/>
	</g>
</g>
<g id="collar" class="st0">
	<path class="st5" d="M132.04,116.53c-0.6-2.85-2.53-4.86-2.53-4.86s-10.89,6.51-19.74,9.06c-13.24,3.82-21.92,3.68-29.31,3.68
		c-7.38,0-16.06,0.14-29.31-3.68c-8.85-2.55-19.74-9.06-19.74-9.06s-1.93,2.01-2.53,4.86c-0.62,2.95-0.37,5.68-0.37,5.68
		s11.58,7.3,22.19,9.77c9.97,2.33,22.29,2.7,29.76,2.7c7.47,0,19.78-0.38,29.76-2.7c10.61-2.47,22.19-9.77,22.19-9.77
		S132.66,119.48,132.04,116.53z"/>
</g>
<g id="patterns">
	<path id="pat1" class="st6" d="M106.39,50.75c-6.68-1.34-25.93,8.4-25.93,8.4s-19.25-9.74-25.93-8.4
		c-7.47,1.49-23.86,12.24-23.14,19.82c0.67,7.01,21.32,11.31,22.16,18.31c2.47,20.68,26.91,19.91,26.91,19.91
		s24.44,0.77,26.91-19.91c0.84-6.99,21.48-11.3,22.16-18.31C130.26,62.99,113.86,52.25,106.39,50.75z"/>
	<g id="pat2" class="st0">
		<path class="st5" d="M80.4,29.86l-4.84,0.44c0,0,1.13,12.43,1.69,16.57c0.65,4.73,3.15,18.92,3.15,18.92s2.51-14.19,3.15-18.92
			c0.57-4.14,1.69-16.57,1.69-16.57L80.4,29.86z"/>
		<path class="st5" d="M69.73,30.41l-4.39,0.49c0,0,1.35,9.55,1.98,12.73c0.71,3.63,3.36,14.49,3.36,14.49s1.9-11.02,2.36-14.69
			c0.4-3.21,1.1-12.84,1.1-12.84L69.73,30.41z"/>
		<path class="st5" d="M91.08,30.41l4.39,0.49c0,0-1.35,9.55-1.98,12.73c-0.71,3.63-3.36,14.49-3.36,14.49s-1.9-11.02-2.36-14.69
			c-0.4-3.21-1.1-12.84-1.1-12.84L91.08,30.41z"/>
	</g>
	<path id="pat3" class="st6" d="M91.06,34.81c0.41-2.84,10.92-3.53,10.92-3.53l-21.56-1.04v0l-0.01,0l-0.01,0v0l-21.56,1.04
		c0,0,10.51,0.69,10.92,3.53c0.23,1.59-5.53,2.01-5.3,3.6c0.32,2.28,8.51,0.56,8.78,2.85c0.18,1.5-5.29,1.64-5.16,3.15
		c0.18,2.13,7.75,1.02,7.94,3.15c0.09,1.03-3.62,1.14-3.52,2.18c0.15,1.58,4.79,1.14,5.92,2.25c0.95,0.93,0.67,4.91,2,4.91
		c1.33,0,1.05-3.99,2-4.91c1.13-1.11,5.77-0.67,5.92-2.25c0.1-1.03-3.62-1.14-3.53-2.18c0.19-2.13,7.76-1.02,7.94-3.15
		c0.13-1.51-5.34-1.65-5.16-3.15c0.27-2.29,8.45-0.57,8.77-2.85C96.58,36.82,90.83,36.39,91.06,34.81z"/>
	<polygon id="pat4" class="st6" points="91.11,34.46 102.03,30.93 80.47,29.9 80.47,29.9 80.46,29.9 80.45,29.9 80.45,29.9 
		58.89,30.93 69.81,34.46 64.51,38.06 73.28,40.91 68.12,44.06 76.06,47.21 72.53,49.39 78.46,51.64 80.46,56.55 82.46,51.64 
		88.38,49.39 84.86,47.21 92.8,44.06 87.63,40.91 96.41,38.06 	"/>
	<g id="pat5" class="st0">
		<path class="st5" d="M69.8,95.86c3.01-0.02,10.26-1.35,10.66-5.94c0.26-2.99-7.65-5.55-10.66-5.55c-6.16,0-13.25,1.92-13.25,5.59
			C56.55,93.83,65.64,95.88,69.8,95.86z"/>
		<path class="st5" d="M91.12,95.86c-3.01-0.02-10.26-1.35-10.66-5.94c-0.26-2.99,7.65-5.55,10.66-5.55
			c6.16,0,13.25,1.92,13.25,5.59C104.37,93.83,95.28,95.88,91.12,95.86z"/>
	</g>
	<g id="pat6" class="st0">
		<circle class="st5" cx="42.46" cy="86.07" r="11.92"/>
		<circle class="st5" cx="118.35" cy="86.07" r="11.92"/>
	</g>
	<path id="pat7" class="st6" d="M128.77,111.54c0,0-12.38-15.24-17.08-19.64c-4.96-4.64-21.56-16.51-21.56-16.51l-9.67,0.59
		l-9.67-0.59c0,0-16.6,11.87-21.56,16.51c-4.7,4.4-17.08,19.64-17.08,19.64s13.86,8.12,24.07,10.67c7.71,1.92,19.55,2.11,23.51,2.18
		l0,0.02c0,0,0.26,0,0.74-0.01c0.47,0.01,0.74,0.01,0.74,0.01l0-0.02c3.96-0.07,15.92-0.44,23.62-2.36
		C115.03,119.49,128.77,111.54,128.77,111.54z"/>
	<g id="pat8">
		<path class="st3" d="M56.33,54.73c-2.98,0-13.51-0.5-13.59,2.47c-0.08,3,10.58,3.11,13.59,3.11c3,0,13.66,0.2,13.59-2.81
			C69.84,54.53,59.3,54.73,56.33,54.73z"/>
		<path class="st3" d="M104.48,54.73c-2.98,0-13.51-0.5-13.59,2.47c-0.08,3,10.58,3.11,13.59,3.11s13.66,0.2,13.59-2.81
			C117.99,54.53,107.46,54.73,104.48,54.73z"/>
	</g>
	<g id="pat9" class="st0">
		<path class="st5" d="M70.58,49.36c0,0,0.58,19.08-1.3,25.06c-2.41,7.67-17.77,19.41-25.81,19.46c-8.25,0.06-13.4-2.54-15.61-7.12
			c-2.47-5.14,4.81-22.85,8.5-27.2C42.39,52.46,70.58,49.36,70.58,49.36z"/>
		<path class="st5" d="M90.23,49.36c0,0-0.58,19.08,1.3,25.06c2.41,7.67,17.77,19.41,25.81,19.46c8.25,0.06,13.4-2.54,15.61-7.12
			c2.47-5.14-4.81-22.85-8.5-27.2C118.42,52.46,90.23,49.36,90.23,49.36z"/>
	</g>
	<path id="pat10" class="st6" d="M140.95,0.93l-6.14,4.62l-19.55,20.77l-6.08,3.82l-6.06,0.68L80.4,29.84l-22.72,0.98l-4.74-0.76
		l-6.35-3.74L26,5.55l-6.14-4.62L17.65,0.5l23.51,36.73c0,0,10.11,2.09,15.84,2.01c8.57-0.11,17.52-2.25,23.4-2.25
		c5.88,0,14.83,2.14,23.4,2.25c5.74,0.07,16.34-2.25,16.34-2.25L143.16,0.5L140.95,0.93z"/>
</g>
<g id="line" class="st0">
	<g class="st2">
		<g>
			<path d="M56.16,63.17c-13.59,0-13.59,7.64-13.59,7.64s0-6.17,13.59-6.17c13.59,0,13.59,6.17,13.59,6.17S69.75,63.17,56.16,63.17z
				"/>
			<path d="M104.76,63.17c-13.59,0-13.59,7.64-13.59,7.64s0-6.17,13.59-6.17c13.59,0,13.59,6.17,13.59,6.17
				S118.35,63.17,104.76,63.17z"/>
			<path class="st7" d="M56.5,90.11c0,0,0,5.59,13.25,5.59c10.66,0,10.66-5.63,10.66-5.63v-5.55"/>
			<path class="st7" d="M80.4,84.52v5.55c0,0,0,5.63,10.66,5.63c13.25,0,13.25-5.59,13.25-5.59"/>
			<path class="st8" d="M90.81,75.82c-1.53-2.15-7.74-2.4-10.41-2.4s-8.88,0.25-10.41,2.4c-0.62,0.87,0.01,3.43,0.75,4.2
				c1.84,1.93,9.66,4.5,9.66,4.5s7.82-2.57,9.66-4.5C90.8,79.25,91.43,76.69,90.81,75.82z"/>
			<g>
				<path class="st8" d="M17.14,0.52c4.03-0.74,17.7,24,23.87,35.97c1.33,2.58-4.73,6.47-8.96,7.84c-5.55,1.8-11.12,1.22-11.12,1.22
					s-1.25-7.06-3.32-15.47C14.52,17.46,10.04,1.83,17.14,0.52z"/>
				<path class="st8" d="M143.69,0.52c-4.03-0.72-17.7,24-23.87,35.97c-1.33,2.58,4.73,6.47,8.96,7.84
					c5.55,1.8,11.12,1.22,11.12,1.22s1.9-8.51,4.09-18C146.79,15.41,149.54,1.56,143.69,0.52z"/>
			</g>
			<g>
				
					<ellipse transform="matrix(0.9457 -0.325 0.325 0.9457 -15.0114 53.3918)" class="st8" cx="152.3" cy="71.62" rx="2.65" ry="3.15"/>
				
					<ellipse transform="matrix(0.9228 -0.3853 0.3853 0.9228 -16.9649 74.7559)" class="st8" cx="178.04" cy="79.71" rx="3.15" ry="2.65"/>
				
					<ellipse transform="matrix(0.9228 -0.3853 0.3853 0.9228 -13.202 71.9107)" class="st8" cx="172.82" cy="68.9" rx="3.15" ry="2.65"/>
				
					<ellipse transform="matrix(0.9457 -0.325 0.325 0.9457 -12.594 56.2001)" class="st8" cx="161.91" cy="65.79" rx="2.65" ry="3.15"/>
				<path class="st8" d="M166.18,71.78c0.97,0.3,2.55,0.43,3.34,1.16c0.79,0.73,0.8,1.63,1.32,2.63c0.69,1.34,1.39,2.84,1.38,4.29
					c0,0.7-0.23,1.47-0.59,2.04c-1.32,2.06-3.93,1.74-4.36,2.03c-0.42,0.28-2.37,2.92-5.58,1.92c-2.93-0.91-2.83-3.62-3.08-4.17
					c-0.17-0.36-2.23-2.05-2.36-4.57c-0.04-0.71,0.23-2.11,0.71-2.74c0.61-0.8,2-1.36,2.9-1.95c0.91-0.59,1.84-1.37,2.91-1.58
					C163.86,70.63,165.06,71.43,166.18,71.78z"/>
			</g>
		</g>
		<g>
			<path class="st7" d="M132.04,116.53c-0.6-2.85-2.53-4.86-2.53-4.86s-10.89,6.51-19.74,9.06c-13.24,3.82-21.92,3.68-29.31,3.68
				s-16.06,0.14-29.31-3.68c-8.85-2.55-19.74-9.06-19.74-9.06s-1.93,2.01-2.53,4.86c-0.62,2.95-0.37,5.68-0.37,5.68
				s11.58,7.3,22.19,9.77c9.97,2.33,22.29,2.7,29.76,2.7c7.47,0,19.78-0.38,29.76-2.7c10.61-2.47,22.19-9.77,22.19-9.77
				S132.66,119.48,132.04,116.53z"/>
			<path class="st7" d="M56.55,90.17"/>
			<path class="st7" d="M104.36,90.17"/>
			<g>
				<g>
					<path class="st7" d="M28.53,223.33c-6.41,0-8.39,10.07-8.29,14.11c0.09,3.52,2.19,11.93,7.88,11.93c6.2,0,8.38-8.41,8.55-11.93
						C36.85,233.51,34.63,223.33,28.53,223.33z"/>
					<path class="st7" d="M12.01,225.58c-6.41,0-8.32,7.82-8.22,11.86c0.09,3.52,2.19,11.93,7.88,11.93c6.2,0,8.38-8.41,8.55-11.93
						C20.41,233.51,18.11,225.58,12.01,225.58z"/>
				</g>
				<g>
					<path class="st7" d="M132.53,223.33c-6.41,0-8.39,10.07-8.29,14.11c0.09,3.52,2.19,11.93,7.88,11.93
						c6.2,0,8.38-8.41,8.55-11.93C140.86,233.51,138.63,223.33,132.53,223.33z"/>
				</g>
				<path class="st7" d="M44.9,225.58c-6.41,0-8.32,7.82-8.22,11.86c0.09,3.52,2.19,11.93,7.88,11.93c6.2,0,8.38-8.41,8.55-11.93
					C53.3,233.51,51,225.58,44.9,225.58z"/>
				<g>
					<path class="st7" d="M116.02,225.58c-6.41,0-8.32,7.82-8.22,11.86c0.09,3.52,2.19,11.93,7.88,11.93c6.2,0,8.38-8.41,8.55-11.93
						C124.42,233.51,122.12,225.58,116.02,225.58z"/>
				</g>
				<path class="st7" d="M148.9,225.58c-6.41,0-8.32,7.82-8.22,11.86c0.09,3.52,2.19,11.93,7.88,11.93c6.2,0,8.38-8.41,8.55-11.93
					C157.3,233.51,155,225.58,148.9,225.58z"/>
			</g>
			<line class="st7" x1="80.46" y1="128.21" x2="80.46" y2="137.41"/>
			<circle class="st9" cx="80.46" cy="142.86" r="5.93"/>
			<path class="st7" d="M10.3,125.77c-8.09,7.74-7.4,16.1-4.53,19.86c9.31,12.18,28.31,25.55,38.49,37.67
				c1.7,2.03,1.16,7.08,1.61,9.28c1.12,5.36,4.27,6.84,7.11,5.72c5.13-2.03,3.42-4.2,5.02-5.36c0.47-0.34-0.82,2.45,0.68,4.09
				c1.12,1.22,2.17,2.89,5.64,1.82c1.8-0.56,4.51-4.16,4.56-5.48c0.07-2.21-1.84-2.96-1.96-4.08c0-0.01,0.02-0.02,0.03-0.02
				c1.13,0.12,1.63,2.23,3.83,2.41c1.32,0.11,5.21-2.17,5.97-3.9c1.46-3.32-0.08-4.56-1.16-5.81c-1.46-1.68-4.38-0.72-3.99-1.15
				c1.33-1.46,3.3,0.49,5.9-4.37c1.44-2.69,0.32-5.99-4.87-7.72c-2.13-0.71-7.21-0.74-9.03-2.66c-10.88-11.5-21.99-31.9-33.03-42.54
				c-3.41-3.29-11.68-4.96-20.25,2.23C10.32,125.75,10.3,125.77,10.3,125.77z"/>
			<path class="st7" d="M142.7,149.36c10.82,2.87,17.6-2.07,19.31-6.48c5.55-14.29,7.06-37.48,12.1-52.48
				c0.84-2.51,5.44-4.67,7.08-6.21c3.99-3.74,3.61-7.21,1.18-9.05c-4.4-3.32-5.37-0.73-7.19-1.49c-0.53-0.22,2.52-0.58,3.14-2.72
				c0.46-1.59,1.33-3.36-1.39-5.76c-1.41-1.25-5.9-1.69-7.05-1.03c-1.92,1.09-1.56,3.11-2.47,3.8c-0.01,0.01-0.03,0-0.03-0.01
				c-0.48-1.02,1.05-2.55,0.06-4.53c-0.6-1.19-4.57-3.31-6.44-3.06c-3.6,0.49-3.85,2.44-4.35,4.02c-0.67,2.12,1.67,4.11,1.1,4
				c-1.94-0.38-1.3-3.07-6.81-2.75c-3.05,0.17-5.29,2.85-4.05,8.18c0.51,2.19,3.13,6.54,2.43,9.1
				c-4.15,15.28-15.77,35.39-19.1,50.36c-1.03,4.62,1.85,12.55,12.46,16.12C142.67,149.35,142.69,149.36,142.7,149.36z"/>
			<path class="st7" d="M12.7,153.4c-2.47,9.22-4.37,20.7-5.32,31.05c2.17-3.37,4.79-6.25,7.62-7.32
				c4.14-1.56,15.31-2.51,21.91-1.54C29.3,168.29,20.02,160.73,12.7,153.4z"/>
			<path class="st10" d="M113.76,225.95c1.73-4.04,3.05-8.29,3.66-11.17c1.45-6.82,1.18-21.03,0-27.9
				c-1.65-9.6-9.22-19.2-14.4-23.85c-8.77-7.88-16.67-8.55-22.56-8.55c-5.49,0-12.74,0.59-20.81,7.07c1.32,1.62,2.64,3.14,3.96,4.54
				c1.82,1.93,6.9,1.96,9.03,2.66c5.19,1.72,6.31,5.03,4.87,7.72c-2.6,4.86-4.57,2.92-5.9,4.37c-0.39,0.43,2.53-0.53,3.99,1.15
				c1.09,1.25,2.62,2.49,1.16,5.81c-0.76,1.73-4.64,4.01-5.97,3.9c-2.2-0.18-2.71-2.29-3.83-2.41c-0.01,0-0.03,0.01-0.03,0.02
				c0.11,1.13,2.03,1.87,1.96,4.08c-0.04,1.33-2.76,4.93-4.56,5.48c-3.47,1.07-4.52-0.6-5.64-1.82c-1.5-1.64-0.22-4.43-0.68-4.09
				c-1.6,1.16,0.11,3.33-5.02,5.36c-2.84,1.12-5.99-0.36-7.11-5.72c-0.45-2.16,0.07-7.08-1.54-9.17c-0.35,1.14-0.64,2.29-0.84,3.44
				c-1.18,6.87-1.45,21.08,0,27.9c0.61,2.89,1.94,7.17,3.68,11.22c3.66,1.39,5.44,6.02,5.84,9.51c5.94,5.51,20.47,5.82,27.44,5.82
				c6.96,0,21.49-0.31,27.43-5.82C108.27,231.95,109.9,227.28,113.76,225.95z"/>
			<path class="st9" d="M112.74,188.28c-1.44-8.39-8.05-16.77-12.58-20.83c-7.66-6.88-14.56-7.47-19.7-7.47
				c-4.61,0-10.63,0.49-17.35,5.54c0.17,0.18,0.33,0.36,0.5,0.54c1.82,1.93,6.9,1.96,9.03,2.66c5.19,1.72,6.31,5.03,4.87,7.72
				c-2.6,4.86-4.57,2.92-5.9,4.37c-0.39,0.43,2.53-0.53,3.99,1.15c1.09,1.25,2.62,2.49,1.16,5.81c-0.76,1.73-4.64,4.01-5.97,3.9
				c-2.2-0.18-2.71-2.29-3.83-2.41c-0.01,0-0.03,0.01-0.03,0.02c0.11,1.13,2.03,1.87,1.96,4.08c-0.04,1.33-2.76,4.93-4.56,5.48
				c-3.47,1.07-4.52-0.6-5.64-1.82c-1.5-1.64-0.22-4.43-0.68-4.09c-1.6,1.16,0.11,3.33-5.02,5.36c-1.96,0.78-4.08,0.3-5.57-1.84
				c-0.25,5.78-0.06,12.33,0.76,16.19c1,4.73,4.19,13.76,7.86,17.69c4.88,5.23,18.16,5.5,24.42,5.5c6.26,0,19.54-0.27,24.42-5.5
				c3.67-3.93,6.86-12.95,7.86-17.69C114,206.69,113.77,194.28,112.74,188.28z"/>
			<path class="st7" d="M52.13,198.55c0.06-0.01,0.12-0.02,0.19-0.04C52.26,198.53,52.19,198.54,52.13,198.55z"/>
			<path class="st7" d="M76.75,187.77c0.1-0.22,0.18-0.43,0.25-0.63C76.93,187.34,76.85,187.55,76.75,187.77z"/>
			<path class="st7" d="M51.6,198.63c-0.05,0-0.1,0.01-0.15,0.01C51.5,198.64,51.55,198.63,51.6,198.63z"/>
			<path class="st7" d="M77.2,186.49c0.04-0.17,0.07-0.33,0.1-0.49C77.27,186.16,77.24,186.32,77.2,186.49z"/>
			<path class="st7" d="M50.67,198.61c0.03,0,0.07,0.01,0.1,0.02C50.74,198.62,50.71,198.62,50.67,198.61z"/>
			<path class="st7" d="M77.04,187.04c0.06-0.17,0.11-0.33,0.15-0.49C77.14,186.71,77.09,186.87,77.04,187.04z"/>
			<path class="st7" d="M77.3,185.99c0.02-0.17,0.04-0.33,0.05-0.48C77.34,185.66,77.32,185.82,77.3,185.99z"/>
			<path class="st7" d="M48.06,197.24c-0.03-0.03-0.06-0.06-0.09-0.1C48,197.18,48.03,197.21,48.06,197.24z"/>
			<path class="st7" d="M49.95,198.45c0.05,0.02,0.1,0.03,0.15,0.05C50.05,198.48,50,198.47,49.95,198.45z"/>
			<path class="st7" d="M48.57,197.71c0.03,0.03,0.07,0.06,0.1,0.08C48.64,197.76,48.61,197.73,48.57,197.71z"/>
			<path class="st7" d="M49.31,198.19C49.31,198.19,49.32,198.19,49.31,198.19C49.32,198.19,49.31,198.19,49.31,198.19z"/>
			<path class="st7" d="M139.93,45.6c0.46-11.29,14.55-44.36,3.27-45.1c-7.19-0.47-23.98,25.5-34.64,29.41c-6.6,2.42-21.08,0-28.1,0
				s-21.51,2.42-28.1,0C41.69,26,24.9,0.04,17.71,0.51c-11.28,0.74,2.8,33.8,3.27,45.1c0.66,15.96-10.33,43.18,7.84,63.4
				c0.85,0.95,1.71,1.83,2.59,2.67l0,0c0,0,10.89,6.51,19.74,9.06c13.24,3.82,21.92,3.68,29.31,3.68c7.38,0,16.06,0.14,29.31-3.68
				c8.82-2.54,19.67-9.02,19.74-9.06c0.87-0.84,1.74-1.72,2.59-2.67C150.26,88.78,139.28,61.56,139.93,45.6z"/>
			<g>
				<path class="st7" d="M75.59,181.96c0.78,0.9,1.79,1.8,1.75,3.48c0.12-1.79-0.94-2.72-1.75-3.65c-1.21-1.4-3.44-0.97-3.92-1.03
					c-0.02,0.02-0.04,0.04-0.07,0.06C71.22,181.24,74.14,180.28,75.59,181.96z"/>
				<path class="st7" d="M147.28,150.13c-1.43-0.11-2.95-0.34-4.57-0.77c-0.01,0-0.03-0.01-0.03-0.01
					c-10.61-3.57-13.48-11.5-12.46-16.12c0.69-3.11,1.75-6.44,3.02-9.9c-0.28-0.38-0.56-0.75-0.83-1.11c0,0-11.58,7.3-22.19,9.77
					c-9.97,2.33-22.29,2.7-29.76,2.7s-19.78-0.38-29.76-2.7c-8.12-1.89-16.8-6.61-20.43-8.72c0.1,0.09,0.22,0.16,0.31,0.25
					c11.04,10.64,22.15,31.04,33.03,42.54c1.82,1.93,6.9,1.96,9.03,2.66c3.82,1.27,5.43,3.39,5.44,5.5
					c0.08-2.16-1.51-4.37-5.44-5.67c-2.13-0.71-7.21-0.74-9.03-2.66c-1.32-1.39-2.64-2.92-3.96-4.54
					c8.07-6.48,15.32-7.07,20.81-7.07c5.89,0,13.78,0.67,22.56,8.55c4.08,3.66,9.62,10.38,12.6,17.76c1.71-1.76,3.57-3.47,4.8-4.05
					c4.88-2.31,20.45-1.31,25.5,0.6c2.83,1.07,5.44,3.95,7.62,7.32C152.46,172.84,150.2,159.8,147.28,150.13z"/>
			</g>
			<path class="st7" d="M158.81,195.73c-1.91-6.08-6.93-16.35-12.9-18.6c-5.05-1.91-20.62-2.91-25.5-0.6
				c-1.23,0.58-3.09,2.3-4.79,4.05c0.81,2,1.44,4.05,1.8,6.09c1.18,6.87,1.45,21.08,0,27.9c-0.61,2.88-1.93,7.13-3.66,11.17
				c-2.12,0.73-3.56,2.47-4.5,4.48h0.1c1.25-2.57,3.35-4.65,6.66-4.65c6.1,0,8.4,7.92,8.21,11.86c-0.05,1-0.27,2.4-0.69,3.89h1.31
				c-0.39-1.49-0.58-2.88-0.61-3.89c-0.1-4.05,1.88-14.11,8.29-14.11c6.1,0,8.33,10.17,8.14,14.11c-0.05,1-0.27,2.4-0.69,3.89h1.31
				c-0.39-1.49-0.58-2.88-0.61-3.89c-0.1-4.05,1.8-11.86,8.22-11.86c3.17,0,5.31,2.14,6.61,4.75
				C160.68,221.31,161.73,205.01,158.81,195.73z"/>
			<path class="st7" d="M47.18,225.89c-1.74-4.05-3.07-8.33-3.68-11.22c-1.45-6.82-1.18-21.03,0-27.9c0.19-1.13,0.48-2.25,0.82-3.37
				c-0.02-0.03-0.04-0.06-0.06-0.08c-2.12-2.53-4.63-5.11-7.35-7.72c-6.6-0.97-17.78-0.02-21.91,1.54
				c-5.97,2.25-10.99,12.52-12.9,18.6c-2.9,9.24-1.87,25.46,3.25,34.5c1.25-2.57,3.35-4.65,6.66-4.65c6.1,0,8.4,7.92,8.21,11.86
				c-0.05,1-0.27,2.4-0.69,3.89h1.31c-0.39-1.49-0.58-2.88-0.61-3.89c-0.1-4.05,1.88-14.11,8.29-14.11c6.1,0,8.33,10.17,8.14,14.11
				c-0.05,1-0.27,2.4-0.69,3.89h1.31c-0.39-1.49-0.58-2.88-0.61-3.89c-0.1-4.05,1.8-11.86,8.22-11.86c3.13,0,5.25,2.09,6.56,4.65
				h0.06C50.55,228.31,49.13,226.63,47.18,225.89z"/>
		</g>
	</g>
</g>
<g id="symbols" class="st0">
	<g id="sym1">
		<g class="st2">
			<path d="M97.97,193.75c0,0,0-2.54,3.17-2.54c3.17,0,3.17,2.54,3.17,2.54v7.32v7.51c0,0,0,2.34-3.17,2.34
				c-3.17,0-3.17-2.34-3.17-2.34v-7.51V193.75z"/>
			<circle class="st11" cx="86.82" cy="182.1" r="1.42"/>
		</g>
		<g class="st2">
			<path d="M94.46,184.18c-1.17-2.83-4.29-6.24-4.29-6.24s3.98-8.98,4.44-10c0.06-0.14-0.9-0.89-1.05-0.64
				c-1.3,2.2-4.88,9.49-4.88,9.49s-3.59-2.12-8.27-2.12c-0.84,0-1.65,0.07-2.42,0.19c-0.08,0.54-0.26,1.07-0.53,1.57
				c-2.6,4.86-4.57,2.92-5.9,4.37c-0.39,0.43,2.53-0.53,3.99,1.15c1.09,1.25,2.62,2.49,1.16,5.81c-0.18,0.41-0.54,0.86-1.01,1.29
				h4.71h15.42C95.82,189.06,95.18,185.94,94.46,184.18z"/>
		</g>
		<circle class="st12" cx="86.82" cy="182.1" r="1.42"/>
		<path class="st2" d="M58.63,197.03c-1.5-1.64-0.22-4.43-0.68-4.09c-0.94,0.68-0.75,1.7-1.45,2.84v5.28v7.51c0,0,0,2.34,3.17,2.34
			c3.17,0,3.17-2.34,3.17-2.34v-7.51v-1.91C60.49,199.41,59.58,198.07,58.63,197.03z"/>
		<path class="st2" d="M96.04,216.14l-0.22-24.93H80.4h-7.97c-0.69,0.31-1.31,0.49-1.7,0.46c-0.57-0.05-1.02-0.22-1.4-0.46h-1.2
			c0.4,0.55,0.73,1.22,0.7,2.16c-0.04,1.17-2.17,4.13-3.91,5.18l-0.16,17.6l-0.02,1.85c0,0,0,2.15,0.68,2.88
			c0.63,0.68,1.9,0.59,1.9,0.59h3.32l-0.05,9.27c0,0-0.02,1.46,3.85,1.46c3.29,0,3.37-1.46,3.37-1.46l0.05-9.29l2.54,0.05l2.54-0.05
			l0.05,9.29c0,0,0.07,1.46,3.37,1.46c3.88,0,3.85-1.46,3.85-1.46l-0.05-9.27h3.32c0,0,1.27,0.1,1.9-0.59
			c0.68-0.73,0.68-2.88,0.68-2.88L96.04,216.14z"/>
	</g>
	<g id="sym2">
		<path class="st2" d="M99.24,174.67c0,0,1.17-1.35-0.93-3.36c-2.15-2.05-3.54-0.24-3.54-0.24l-14.37,16.65l-3.46-4.01
			c0.46,0.92,0.58,2.13-0.24,3.99c-0.32,0.73-1.21,1.57-2.23,2.28l2.28,2.7v4.11h-8.77c0,0-1.98,0.06-1.86,3.04
			c0.11,2.64,1.8,2.76,1.8,2.76h8.78v4.56h-8.83c0,0-1.86,0.28-1.74,3.09c0.11,2.7,1.8,2.92,1.8,2.92h8.78v15c0,0,0.1,2.78,3.7,2.78
			c3.55,0,3.7-2.78,3.7-2.78v-15h8.78c0,0,1.69-0.22,1.8-2.92c0.12-2.81-1.74-3.09-1.74-3.09H84.1v-4.56h8.78
			c0,0,1.69-0.11,1.8-2.76c0.13-2.98-1.86-3.04-1.86-3.04h-8.77v-4.11L99.24,174.67z"/>
	</g>
	<g id="sym3">
		<path class="st2" d="M101.09,215.48c1.92,1.28,3.13-4.51,1.5-6.09c-1.8-1.74-6.18-0.89-10.79-0.43c-4.4,0.44-9.01,0.47-11.75,0.43
			c-0.8-0.01-21.47-0.12-22.54,0c-0.94,0.1,0.55,2.55,1.6,3.42c3.38,2.77,17.52,1.37,17.52,2.03c0,0,0.5,2.1,0,2.46
			c-0.83,0.58-17.43-1.47-18.62,0c-0.86,1.07-0.99,10.27-0.23,10.91c1.06,0.89,5.1,1.8,5.78,0.52c0.37-0.69-0.62-7.83-0.11-8.55
			c0.96-1.33,13.28,0.11,13.28,0.11s0.77,3.89,0,4.81c0,0-3.41,0.61-4.17-0.11c-0.56-0.54,0.46-2.71-0.21-3.1
			c-0.6-0.34-4.33-0.43-4.81,0c-0.55,0.5-0.24,4.71,0.96,5.93c2.21,2.25,8.64,0.89,11.54,0.91c2.93,0.02,9.49,1.5,11.7-0.75
			c1.2-1.22,1.44-5.59,0.8-6.09c-0.62-0.49-4.26-0.29-4.81,0c-0.83,0.44,0.61,3.4-0.26,3.75c-0.52,0.21-4.76-0.97-4.76-0.97
			s-0.41-3.79,0.64-4.38c2.07-1.16,10.03-0.51,13.07-0.11c1.38,0.18-0.55,6.35-0.17,8.03c0.31,1.35,4.45,1.47,5.62,0.51
			c0.83-0.68,1.47-9.23-0.85-10.9c-3.54-2.54-15.49-0.85-17.62-1.32c-0.6-0.13-0.06-1.07,0.06-1.67
			C83.99,212.39,98.34,213.64,101.09,215.48z"/>
		<path class="st2" d="M100.54,176.83c-3.73-0.54-12.58,3.83-17.07,2.65c-0.41-0.11-0.38-1.51,0-1.71c1.7-0.9,7.41-1.64,10.36-2.88
			c4.11-1.73,5.07-5.76,2.35-5.02c-5.28,1.43-12.08,1.29-16.13,1.39c-0.92,0.02-2,0.01-3.18-0.03c1.43,1.62,1.52,3.52,0.63,5.19
			c-0.29,0.55-0.57,0.99-0.85,1.38c0.35,0.25,0.36,1.51-0.02,1.69c-0.21,0.1-0.81,0.1-1.7,0.01c-1.37,0.81-2.48,0.36-3.32,1.29
			c-0.39,0.43,2.53-0.53,3.99,1.15c0.78,0.9,1.79,1.8,1.75,3.47c0.11,0.27,0.23,0.51,0.35,0.67c0.51,0.65,1.71,1,2.35,0.99
			c0.66-0.01,1.87-0.4,2.46-0.99c0.57-0.57,1.14-1.68,1.18-2.27c0.2-2.78,12.43,0.72,16.44,0.68
			C103.08,184.46,103.69,177.29,100.54,176.83z"/>
		<path class="st2" d="M102.59,189.2c-4.26-3.7-11.07,1.58-22.54,1.07c-1.59-0.07-3.2-0.2-4.78-0.38c-1.48,1.22-3.58,2.26-4.48,2.19
			c-2.2-0.18-2.71-2.29-3.83-2.41c-0.01,0-0.03,0.01-0.03,0.02c0.11,1.13,2.03,1.87,1.96,4.08c-0.02,0.66-0.71,1.89-1.62,3.03
			c3.48-0.03,7.25-0.32,9.92,0.31c0.51,0.12,0.15,1.64,0.07,2.15c-0.15,0.95-2.46,1.85-3.78,2.21c-3.65,0.99-15.96-1.37-15.96-1.37
			s0.88,3.28,1.82,3.85c1.15,0.68,14.84,5.57,19.66,2.56c1.39-0.87,3.2-5.45,3.2-5.45s9.53-0.26,9.83,2.24
			c0.05,0.42-1.08,0.74-1.5,0.75c-1.63,0.03-6.41-1.18-6.41-1.18s0.64,1.71,0.96,2.14c1.06,1.39,4.16,1.9,5.88,2.24
			c2,0.4,6.56,0.46,8.12-0.85c1.35-1.14,3.53-4.91,0.64-7.05c-3.26-2.41-16.77-0.64-16.77-0.64v-2.56c0,0,14.82-1.31,18.41,1.21
			C104.23,199.39,104.24,190.64,102.59,189.2z"/>
	</g>
	<g id="sym4">
		<path class="st2" d="M77.6,176.59c-0.73,1.36-1.4,2.18-2.03,2.69c4.94-1.12,11.61-0.44,14.29,2.23c1.32,1.31,1.09,6.79,1.09,6.79
			h5.94c0,0,0.69-7.12-1.45-10.06c-3.27-4.48-11.33-4.48-11.33-4.48l0.06-5.33c0,0,0-1.94-3.63-1.94c-3.39,0-3.63,1.94-3.63,1.94
			l0,2.9C78.39,172.95,78.5,174.89,77.6,176.59z"/>
		<path class="st2" d="M95.18,198.23c-5.03-4.17-20.96-0.24-24.72-4.48c-0.59-0.67-1.03-1.59-1.32-2.63
			c-0.87-0.69-1.36-1.63-2.1-1.71c-0.01,0-0.03,0.01-0.03,0.02c0.11,1.13,2.03,1.87,1.96,4.08c-0.03,0.87-1.21,2.73-2.53,4.05
			c0.17,0.18,0.33,0.37,0.51,0.54c5.37,4.9,19.74,0.4,24.48,4.97c2.64,2.54,2.58,12.16-0.12,14.3c-4.25,3.37-18.3,3.51-20.6,0.51
			c-1.11-1.44-1.21-7.69-1.21-7.69h-5.33c0,0-0.64,9.34,1.94,11.9c2.59,2.58,10.76,2.57,10.76,2.57l0.12,5.3
			c0,0,0.39,1.94,3.42,1.94c3.63,0,3.76-1.94,3.76-1.94l-0.06-5.24c0,0,8.03-0.44,10.72-2.88
			C99.78,217.37,100.81,202.9,95.18,198.23z"/>
	</g>
	<g id="sym5">
		<g class="st2">
			<path d="M47.31,200.66c0,0.84,0.01,1.67,0.02,2.49h66.24c0.02-0.82,0.03-1.66,0.02-2.49H47.31z"/>
			<path d="M113.22,211.74H48.38c0.04,0.25,0.09,0.5,0.13,0.73c0.11,0.54,0.26,1.13,0.43,1.77h63.71c0.17-0.63,0.31-1.23,0.43-1.77
				C113.13,212.24,113.17,211.99,113.22,211.74z"/>
		</g>
		<path class="st2" d="M72.94,180h36.87c-0.43-0.85-0.89-1.68-1.37-2.49H76.76C75.25,179.73,73.98,179.8,72.94,180z"/>
		<path class="st2" d="M70.79,191.52c-1.61-0.13-2.31-1.28-3.01-1.95h-0.71c0.35,0.7,1.26,1.36,1.64,2.49h44.54
			c-0.08-0.89-0.17-1.72-0.26-2.49H74.96C73.51,190.69,71.63,191.59,70.79,191.52z"/>
	</g>
	<g id="sym6">
		<line class="st13" x1="80.59" y1="215.12" x2="80.59" y2="217.37"/>
		<path class="st2" d="M70.74,206.44c-5.51,0-5.51,3.1-5.51,3.1s0-2.5,5.51-2.5c5.51,0,5.51,2.5,5.51,2.5S76.25,206.44,70.74,206.44
			z"/>
		<path class="st2" d="M90.44,206.44c-5.51,0-5.51,3.1-5.51,3.1s0-2.5,5.51-2.5c5.51,0,5.51,2.5,5.51,2.5S95.95,206.44,90.44,206.44
			z"/>
		<path class="st13" d="M70.87,217.36c0,0,0,2.27,5.37,2.27c4.32,0,4.32-2.28,4.32-2.28"/>
		<path class="st13" d="M80.57,217.35c0,0,0,2.28,4.32,2.28c5.37,0,5.37-2.27,5.37-2.27"/>
		<path class="st2" d="M80.59,215.4c0,0,3.17-1.04,3.92-1.82c0.3-0.31,0.55-1.35,0.3-1.7c-0.62-0.87-3.14-0.97-4.22-0.97
			c-1.08,0-3.6,0.1-4.22,0.97c-0.25,0.35,0.01,1.39,0.3,1.7C77.42,214.36,80.59,215.4,80.59,215.4"/>
		<path class="st2" d="M106.22,181.04c-1.64-0.29-7.18,9.73-9.68,14.58c-0.54,1.04,1.92,2.62,3.63,3.18c2.25,0.73,4.51,0.5,4.51,0.5
			s0.77-3.45,1.66-7.3C107.48,187.08,108.6,181.46,106.22,181.04z"/>
		<path class="st2" d="M58.82,197.04c-1.5-1.64-0.22-4.43-0.68-4.09c-1.18,0.85-0.58,2.25-2.2,3.73c0.33,1.57,0.52,2.62,0.52,2.62
			s2.17,0.22,4.37-0.46C59.95,198.41,59.39,197.66,58.82,197.04z"/>
		<path class="st13" d="M104.7,199.32c0.19-4.58,5.9-17.98,1.32-18.28c-2.91-0.19-9.72,10.34-14.04,11.92c-2.67,0.98-8.55,0-11.39,0
			s-8.72,0.98-11.39,0c-0.07-0.03-0.14-0.06-0.22-0.09c0.02,0.16,0.04,0.32,0.04,0.51c-0.04,1.33-2.76,4.93-4.56,5.48
			c-3.47,1.07-4.52-0.6-5.64-1.82c-1.5-1.64-0.22-4.43-0.68-4.09c-1.15,0.83-0.61,2.19-2.1,3.64c0.24,1.07,0.41,2.02,0.44,2.74
			c0.27,6.47-4.19,17.51,3.18,25.7c0.34,0.38,0.7,0.74,1.05,1.08c0,0,4.42,2.64,8,3.67c5.37,1.55,8.89,1.49,11.88,1.49
			c2.99,0,6.51,0.06,11.88-1.49c3.58-1.03,7.98-3.66,8-3.67c0.35-0.34,0.7-0.7,1.05-1.08C108.89,216.82,104.44,205.79,104.7,199.32z
			"/>
	</g>
	<g id="sym7">
		<g class="st2">
			<path d="M95.75,206.18c-1.8-4.08-4.5-6.82-4.5-6.82H80.16H69.08c0,0-2.7,2.73-4.5,6.82c-1.5,3.4-2.56,10.98-2.28,14.68
				c0.16,2.11,1.58,4.37,1.58,4.37h16.28h16.28c0,0,1.42-2.26,1.58-4.37C98.31,217.15,97.25,209.57,95.75,206.18z"/>
			<path d="M99.19,219.03c-0.46-1.48-1.68-3.97-3.13-4.52c-1.23-0.46-5.01-0.71-6.19-0.15c-0.69,0.32-2.19,2.11-2.19,2.11
				l-7.52,0.07l-7.52-0.07c0,0-1.5-1.79-2.19-2.11c-1.19-0.56-4.96-0.32-6.19,0.15c-1.45,0.55-2.67,3.04-3.13,4.52
				c-0.76,2.43-0.41,6.85,1.12,8.89c0.28,0.38,1.63,2.19,1.63,2.19h6.86c0,0,0.97-0.7,1.39-1.2c0.38-0.45,0.94-1.49,0.94-1.49h7.08
				h7.08c0,0,0.56,1.04,0.94,1.49c0.42,0.51,1.39,1.2,1.39,1.2h6.86c0,0,1.35-1.81,1.63-2.19C99.6,225.88,99.95,221.46,99.19,219.03
				z"/>
			<path d="M92.69,199.8c-0.15-0.69-0.62-1.18-0.62-1.18s-2.64,1.58-4.79,2.2c-3.22,0.93-5.32,0.89-7.12,0.89s-3.9,0.03-7.12-0.89
				c-2.15-0.62-4.79-2.2-4.79-2.2s-0.47,0.49-0.62,1.18c-0.15,0.72-0.09,1.38-0.09,1.38s2.81,1.77,5.39,2.37
				c2.42,0.56,5.41,0.66,7.23,0.66c1.81,0,4.8-0.09,7.23-0.66c2.58-0.6,5.39-2.37,5.39-2.37S92.84,200.52,92.69,199.8z"/>
			<path d="M95.28,207.77c2.63,0.7,4.27-0.5,4.69-1.57c1.35-3.47,1.71-9.1,2.94-12.74c0.2-0.61,1.32-1.13,1.72-1.51
				c0.97-0.91,0.88-1.75,0.29-2.2c-1.07-0.81-1.3-0.18-1.75-0.36c-0.13-0.05,0.61-0.14,0.76-0.66c0.11-0.39,0.32-0.82-0.34-1.4
				c-0.34-0.3-1.43-0.41-1.71-0.25c-0.47,0.26-0.38,0.76-0.6,0.92c0,0-0.01,0-0.01,0c-0.12-0.25,0.26-0.62,0.01-1.1
				c-0.14-0.29-1.11-0.8-1.56-0.74c-0.87,0.12-0.94,0.59-1.06,0.98c-0.16,0.51,0.4,1,0.27,0.97c-0.47-0.09-0.32-0.74-1.65-0.67
				c-0.74,0.04-1.28,0.69-0.98,1.99c0.12,0.53,0.76,1.59,0.59,2.21c-1.01,3.71-3.83,8.59-4.64,12.23
				C92,204.98,92.7,206.9,95.28,207.77C95.27,207.77,95.28,207.77,95.28,207.77z"/>
			<path d="M89.14,216.88c-0.4-2.33-2.24-4.66-3.5-5.79c-2.13-1.91-4.05-2.08-5.48-2.08c-1.43,0-3.35,0.16-5.48,2.08
				c-1.26,1.13-3.1,3.46-3.5,5.79c-0.29,1.67-0.35,5.12,0,6.77c0.28,1.32,1.17,3.82,2.19,4.92c1.36,1.45,5.05,1.53,6.79,1.53
				s5.43-0.08,6.79-1.53c1.02-1.09,1.91-3.6,2.19-4.92C89.49,222,89.42,218.55,89.14,216.88z"/>
			<g>
				<g>
					<path d="M67.56,225.73c-1.56,0-2.04,2.44-2.01,3.43c0.02,0.86,0.53,2.9,1.91,2.9c1.51,0,2.04-2.04,2.08-2.9
						C69.58,228.2,69.04,225.73,67.56,225.73z"/>
					<path d="M63.55,226.28c-1.56,0-2.02,1.9-2,2.88c0.02,0.86,0.53,2.9,1.91,2.9c1.51,0,2.04-2.04,2.08-2.9
						C65.59,228.2,65.03,226.28,63.55,226.28z"/>
				</g>
				<g>
					<path d="M92.81,225.73c-1.56,0-2.04,2.44-2.01,3.43c0.02,0.86,0.53,2.9,1.91,2.9c1.51,0,2.04-2.04,2.08-2.9
						C94.83,228.2,94.29,225.73,92.81,225.73z"/>
				</g>
				<path d="M71.53,226.28c-1.56,0-2.02,1.9-2,2.88c0.02,0.86,0.53,2.9,1.91,2.9c1.51,0,2.04-2.04,2.08-2.9
					C73.57,228.2,73.01,226.28,71.53,226.28z"/>
				<g>
					<path d="M88.8,226.28c-1.56,0-2.02,1.9-2,2.88c0.02,0.86,0.53,2.9,1.91,2.9c1.51,0,2.04-2.04,2.08-2.9
						C90.84,228.2,90.28,226.28,88.8,226.28z"/>
				</g>
				<path d="M96.78,226.28c-1.56,0-2.02,1.9-2,2.88c0.02,0.86,0.53,2.9,1.91,2.9c1.51,0,2.04-2.04,2.08-2.9
					C98.82,228.2,98.26,226.28,96.78,226.28z"/>
			</g>
			<line x1="80.16" y1="202.69" x2="80.16" y2="205.67"/>
			<circle cx="80.16" cy="206.19" r="1.44"/>
			<path d="M88,217.22c-0.35-2.04-1.95-4.07-3.05-5.06c-1.86-1.67-3.54-1.81-4.78-1.81c-1.25,0-2.92,0.14-4.78,1.81
				c-1.1,0.99-2.7,3.02-3.05,5.06c-0.25,1.46-0.31,4.47,0,5.92c0.24,1.15,1.02,3.34,1.91,4.29c1.18,1.27,4.41,1.34,5.93,1.34
				c1.52,0,4.74-0.07,5.93-1.34c0.89-0.95,1.66-3.15,1.91-4.29C88.31,221.69,88.25,218.68,88,217.22z"/>
			<path d="M63.13,202.04c-1.96,1.88-1.8,3.91-1.1,4.82c2.26,2.96,6.87,6.2,9.35,9.15c0.41,0.49,0.28,1.72,0.39,2.25
				c0.27,1.3,1.04,1.66,1.73,1.39c1.24-0.49,0.83-1.02,1.22-1.3c0.11-0.08-0.2,0.6,0.17,0.99c0.27,0.3,0.53,0.7,1.37,0.44
				c0.44-0.13,1.1-1.01,1.11-1.33c0.02-0.54-0.45-0.72-0.47-0.99c0,0,0-0.01,0.01-0.01c0.27,0.03,0.4,0.54,0.93,0.59
				c0.32,0.03,1.26-0.53,1.45-0.95c0.35-0.81-0.02-1.11-0.28-1.41c-0.35-0.41-1.06-0.17-0.97-0.28c0.32-0.35,0.8,0.12,1.43-1.06
				c0.35-0.65,0.08-1.46-1.18-1.87c-0.52-0.17-1.75-0.18-2.19-0.65c-2.64-2.79-5.34-7.75-8.02-10.33
				C67.23,200.7,65.22,200.29,63.13,202.04C63.13,202.04,63.13,202.04,63.13,202.04z"/>
		</g>
		<path class="st2" d="M95.28,171.63c-1.75-0.11-5.82,6.19-8.41,7.14c-1.6,0.59-5.12,0-6.82,0c-1.15,0-3.12,0.26-4.78,0.25
			c-1.54,1.16-2.78,0.53-3.71,1.55c-0.39,0.43,2.53-0.53,3.99,1.15c1.09,1.25,2.62,2.49,1.16,5.81c-0.76,1.73-4.64,4.01-5.97,3.9
			c-2.2-0.18-2.71-2.29-3.83-2.41c-0.01,0-0.03,0.01-0.03,0.02c0.11,1.13,2.03,1.87,1.96,4.08c-0.03,0.8-1.02,2.42-2.2,3.7
			c0.26,0.39,0.54,0.77,0.87,1.14c4.1,4.57,9.27,4.1,12.54,4.1s8.43,0.46,12.54-4.1c4.41-4.91,1.75-11.52,1.9-15.39
			C94.59,179.84,98.01,171.81,95.28,171.63z"/>
	</g>
	<path id="sym8" d="M88.97,224.49c-7.72,0-13.99-4.12-16.72-11.2h16.86l2.95-6.91H70.83c-0.03-0.49-0.06-0.98-0.06-1.49
		c0-0.58,0.03-1.14,0.06-1.71h22.55l2.95-6.91H72.33c2.58-6.62,8.34-11.2,16.97-11.2c5.2,0,8.77,1.19,11.05,2.49l2.98-6.68
		c-2.6-1.3-8.39-3.4-14.03-3.4c-5.67,0-10.65,1.3-14.81,3.6c0.41,0.16,0.79,0.39,1.11,0.76c1.09,1.25,2.62,2.49,1.16,5.81
		c-0.76,1.73-4.64,4.01-5.97,3.9c-2.2-0.18-2.71-2.29-3.83-2.41c-0.01,0-0.03,0.01-0.03,0.02c0.11,1.13,2.03,1.87,1.96,4.08
		c-0.04,1.33-2.76,4.93-4.56,5.48c-3.47,1.07-4.52-0.6-5.64-1.82c-0.17-0.18-0.3-0.38-0.4-0.59L56,196.36
		c-0.03,0.03-0.07,0.06-0.1,0.09l-2.91,6.82l8.22-0.1c-0.04,0.71-0.07,1.42-0.07,2.14c0,0.36,0.01,0.71,0.02,1.06H55.8l-2.95,6.91
		h9.23c2.87,11.51,12.14,18.78,25.16,18.78c7.04,0,12.56-1.73,15.06-3.03l-1.63-7.15C97.96,223.08,94.38,224.49,88.97,224.49z"/>
	<g id="sym9">
		<path class="st2" d="M93.06,221.83c-1.01-0.6-1.66-0.99-1.95-1.17c-2.29-1.48-4.21-2.67-5.77-3.55c-0.26-0.16-0.68-0.4-1.25-0.74
			c4.47-2.24,7.9-3.57,10.3-4.02c0.99,0.62,1.8,1.1,2.44,1.42c0.64,0.33,1.11,0.49,1.42,0.49c0.62,0,1.09-0.15,1.4-0.45
			c0.31-0.3,0.47-0.73,0.47-1.31c0-0.68-0.56-1.72-1.68-3.12c0.18-1.09,0.27-1.94,0.27-2.54c0-0.7-0.13-1.22-0.39-1.56
			c-0.26-0.34-0.66-0.51-1.21-0.51c-0.44,0-1.16,0.38-2.15,1.15c-0.99,0.77-2.24,1.92-3.74,3.45c-0.88,0.36-1.43,0.6-1.64,0.7
			c-4.24,1.79-7.2,3.16-8.89,4.1c-4.19-2.13-7.78-3.73-10.77-4.8c-1.35-1.59-2.51-2.77-3.47-3.55c-0.96-0.78-1.74-1.17-2.34-1.17
			c-0.6,0-1.05,0.19-1.36,0.57c-0.31,0.38-0.47,0.96-0.47,1.74c0,0.55,0.13,1.35,0.39,2.42c-1.14,1.51-1.72,2.51-1.72,3
			c0,0.55,0.18,0.96,0.53,1.25c0.35,0.29,0.86,0.43,1.54,0.43c0.47,0,0.98-0.14,1.52-0.43c0.55-0.29,1.14-0.72,1.8-1.29
			c2.76,0.49,6.34,1.83,10.72,4.02c-3.26,1.74-6.08,3.49-8.46,5.23c-3.17,0.47-5.25,0.94-6.24,1.42c-0.99,0.48-1.48,1.26-1.48,2.32
			c0,1.46,1.33,2.18,3.98,2.18c1.12,1.66,2.11,2.5,2.96,2.5c1.35,0,2.24-1.47,2.65-4.41c3.04-2.78,6.35-5.17,9.91-7.18
			c2.91,1.54,6.19,3.8,9.83,6.79c0.21,0.49,0.35,0.87,0.43,1.13c0.88,2.44,1.79,3.67,2.73,3.67c0.78,0,1.77-0.73,2.96-2.18
			c2.55-0.42,3.82-1.22,3.82-2.42C100.16,223.57,97.79,222.38,93.06,221.83z"/>
		<path class="st2" d="M77.57,176.43c-2.6,4.86-4.57,2.92-5.9,4.37c-0.39,0.43,2.53-0.53,3.99,1.15c0.66,0.76,1.49,1.52,1.7,2.75
			c0.53,0.55,0.8,1.38,0.8,2.49c0,2.68-1.1,4.02-3.3,4.02c-0.64,0-1.18-0.12-1.63-0.34c-0.96,0.51-1.86,0.83-2.38,0.79
			c-0.42-0.03-0.76-0.15-1.07-0.3l0.5,3.2l5.49,2.61l0.78,1.99c0.49,0.16,1.07,0.28,1.75,0.37c0.67,0.09,1.42,0.14,2.25,0.14
			c1.68,0,3.02-0.17,4-0.51l0.78-1.99l5.46-2.61l0.51-3.28c0.1-0.62,0.23-1.09,0.39-1.4c1.66-2.86,2.5-5.79,2.5-8.78
			c0-3.48-1.26-6.31-3.78-8.46c-2.52-2.16-5.81-3.24-9.87-3.24c-1.82,0-3.47,0.23-4.98,0.66C78.25,171.87,78.69,174.33,77.57,176.43
			z M86.5,183.88c1.07,0,1.87,0.27,2.4,0.82c0.53,0.55,0.8,1.38,0.8,2.5c0,2.68-1.09,4.02-3.28,4.02s-3.28-1.25-3.28-3.74
			C83.15,185.07,84.27,183.88,86.5,183.88z M79.13,192.69c0.49-0.6,0.97-1.29,1.44-2.07c0.44,0.75,0.92,1.44,1.44,2.07
			c0.62,0.7,0.94,1.24,0.94,1.6c0,0.86-0.48,1.29-1.44,1.29c-0.29,0-0.6-0.1-0.94-0.31c-0.34,0.21-0.65,0.31-0.94,0.31
			c-0.47,0-0.83-0.1-1.07-0.31c-0.25-0.21-0.37-0.52-0.37-0.94C78.2,193.94,78.51,193.39,79.13,192.69z"/>
		<path class="st2" d="M84.19,201.39c-0.71,0.42-2.01,0.62-3.88,0.62c-1.66,0-2.85-0.22-3.56-0.66c-0.71-0.44-1.37-1.35-1.97-2.73
			c-0.08-0.21-0.19-0.51-0.35-0.9l-1.41,0.35l0.98,3.86l2.39,2.07c0.86,1.61,2.22,2.42,4.08,2.42c0.93,0,1.74-0.2,2.43-0.6
			c0.69-0.4,1.24-1.01,1.65-1.81l2.38-2.07l0.97-3.86l-1.4-0.35c-0.16,0.39-0.27,0.69-0.35,0.9
			C85.56,200.05,84.9,200.97,84.19,201.39z"/>
	</g>
	<path id="sym10" d="M80.58,222.16c-4.19,0-7.94,2.06-7.94,2.06v-0.17c2.92-2.49,4.98-5.58,5.92-9.27c0.77-3.09,0.6-6.35,0.34-9.61
		h11.68v-5.41H78.22c-0.51-2.75-1.03-5.49-1.03-9.19c0-6.1,2.75-10.73,9.44-10.73c3.61,0,6.1,0.86,7.64,1.72l1.72-5.67
		c-1.8-1.12-4.89-2.15-9.36-2.15c-3.4,0-6.47,0.86-9.01,2.4c-0.05,0.12-0.1,0.24-0.17,0.35c-1.64,3.07-3.03,3.42-4.16,3.64
		c-0.2,0.27-0.4,0.55-0.58,0.84c0.88,0.01,2.06,0.16,2.83,1.04c1.09,1.25,2.62,2.49,1.16,5.81c-0.76,1.73-4.64,4.01-5.97,3.9
		c-0.21-0.02-0.39-0.07-0.57-0.11c0.1,2.96,0.54,5.85,0.92,8.14h-7.98v5.41h8.84c0.34,2.23,0.43,3.95,0.43,6.01
		c0,6.44-4.04,12.1-9.79,15.02v6.24c0,0,12.88-3.9,17.99-4.01c5.73-0.13,17.64,2.06,17.64,2.06v-5.72
		C98.22,224.76,87.18,222.15,80.58,222.16z"/>
</g>
</svg>
